<?xml version="1.0" encoding="UTF-8" standalone="no"?>
<!-- Created with Inkscape (http://www.inkscape.org/) -->
<svg
   xmlns:dc="http://purl.org/dc/elements/1.1/"
   xmlns:cc="http://web.resource.org/cc/"
   xmlns:rdf="http://www.w3.org/1999/02/22-rdf-syntax-ns#"
   xmlns:svg="http://www.w3.org/2000/svg"
   xmlns="http://www.w3.org/2000/svg"
   xmlns:sodipodi="http://sodipodi.sourceforge.net/DTD/sodipodi-0.dtd"
   xmlns:inkscape="http://www.inkscape.org/namespaces/inkscape"
   width="810"
   height="810"
   id="svg2"
   sodipodi:version="0.32"
   inkscape:version="0.45.1"
   sodipodi:docbase="/home/uwe/Desktop/Downloads"
   sodipodi:docname="Kettenblatt-einfach.svg"
   inkscape:output_extension="org.inkscape.output.svg.inkscape"
   version="1.0"
   inkscape:export-filename="/home/uwe/Desktop/Zahnkranz-zähne.png"
   inkscape:export-xdpi="45"
   inkscape:export-ydpi="45">
  <defs
     id="defs4" />
  <sodipodi:namedview
     id="base"
     pagecolor="#ffffff"
     bordercolor="#666666"
     borderopacity="1.0"
     inkscape:pageopacity="0.0"
     inkscape:pageshadow="2"
     inkscape:zoom="1"
     inkscape:cx="350.92"
     inkscape:cy="363.61211"
     inkscape:document-units="px"
     inkscape:current-layer="g9408"
     inkscape:window-width="1280"
     inkscape:window-height="949"
     inkscape:window-x="0"
     inkscape:window-y="25"
     width="810px"
     height="810px"
     showgrid="true" />
  <metadata
     id="metadata7">
    <rdf:RDF>
      <cc:Work
         rdf:about="">
        <dc:format>image/svg+xml</dc:format>
        <dc:type
           rdf:resource="http://purl.org/dc/dcmitype/StillImage" />
      </cc:Work>
    </rdf:RDF>
  </metadata>
  <g
     inkscape:label="Ebene 1"
     inkscape:groupmode="layer"
     id="layer1">
    <path
       sodipodi:type="arc"
       style="opacity:1;fill:#000000;fill-opacity:1;fill-rule:evenodd;stroke:none;stroke-width:5.80000019;stroke-linecap:round;stroke-linejoin:round;stroke-miterlimit:4;stroke-dasharray:none;stroke-opacity:1"
       id="path2243"
       sodipodi:cx="1105"
       sodipodi:cy="150"
       sodipodi:rx="59"
       sodipodi:ry="230"
       d="M 1164,150 A 59,230 0 0 1 1162.2871,205.01867"
       sodipodi:start="0"
       sodipodi:end="0.24155379"
       sodipodi:open="true" />
    <path
       sodipodi:type="arc"
       style="opacity:1;fill:#000000;fill-opacity:1;fill-rule:evenodd;stroke:none;stroke-width:5.80000019;stroke-linecap:round;stroke-linejoin:round;stroke-miterlimit:4;stroke-dasharray:none;stroke-opacity:1"
       id="path2245"
       sodipodi:cx="1088"
       sodipodi:cy="172"
       sodipodi:rx="62"
       sodipodi:ry="32"
       d="M 1150,172 A 62,32 0 0 1 1148.2,179.65477"
       sodipodi:start="0"
       sodipodi:end="0.24155379"
       sodipodi:open="true" />
    <g
       id="g4189"
       transform="translate(-2,-20)">
      <g
         id="g9408"
         transform="translate(2,2)">
        <path
           sodipodi:nodetypes="cssssssssssssssssssssssssssssssssssssscccssssssssssssssssssssssssssssssssssssssssssssssssssssssssssssssssssssssscszsccsssssssssc"
           id="path2221"
           d="M 382.46006,814.17056 C 378.57789,799.32527 355.52365,796.9424 346.08955,810.41133 C 338.64671,821.03756 330.52026,819.93386 327.49649,807.8861 C 326.01609,801.98791 320.53958,796.05208 314.43761,793.73205 C 305.8719,790.47546 302.32525,791.24249 295.25947,797.88051 C 283.38484,809.03614 279.38839,808.14476 274.91388,793.34272 C 269.32854,774.8659 259.7676,770.33048 244.63532,778.97929 C 226.80495,789.17011 220.28981,788.19872 223.39845,775.81289 C 225.13664,768.88728 223.68213,763.12536 218.84708,757.78275 C 210.23747,748.26909 203.74894,747.92066 190.98156,756.28616 C 178.19836,764.66203 172.96228,760.76483 175.55262,744.80248 C 177.14564,734.98575 175.64344,729.98129 169.4105,724.34066 C 161.53895,717.21693 156.1715,717.16237 139.40692,724.03552 C 132.637,726.81114 132.19018,725.62238 134.61303,711.28178 C 138.20543,690.01854 127.83794,679.61022 106.96594,683.52585 C 91.542011,686.41936 90.090221,684.09566 97.35733,668.1462 C 104.42,652.64523 93.084701,637.74326 74.231101,637.74326 C 62.083938,637.74326 60.333403,636.66286 62.870047,630.73154 C 73.910971,604.91491 67.725521,589.66287 46.21468,589.66287 C 30.289426,589.66287 30.047303,588.89513 41.210438,573.79615 C 52.488413,558.54183 48.996978,542.67161 33.622471,539.30553 C 10.547596,534.25352 9.958286,533.50399 21.663412,524.09501 C 29.541504,517.76227 32.681824,511.58491 32.681824,502.42051 C 32.681824,491.55917 30.541653,488.70879 18.658392,483.74366 C 1.545391,476.59338 1.218681,473.43812 16.680363,464.63996 C 24.639149,460.11119 28.63226,454.71855 28.547714,448.61318 C 28.402392,438.12149 19.992503,425.38832 13.208321,425.38832 C 5.023363,425.38832 8.399088,414.44879 18.658392,407.72666 C 31.49821,399.31367 32.328682,380.32139 20.227365,371.84531 C 10.618795,365.11519 13.012878,358.4609 26.949088,353.16237 C 40.599418,347.9725 43.477311,332.02509 33.136065,318.87827 C 23.598087,306.75269 25.169434,301.18073 38.127008,301.18073 C 43.06543,301.18073 49.26955,299.01711 51.913978,296.3727 C 58.772364,289.51432 57.856269,269.00815 50.319467,260.68003 C 42.961293,252.54938 46.530531,243.39384 55.688399,246.90803 C 64.779871,250.39674 76.157641,245.67729 81.151641,236.34589 C 84.577481,229.94468 83.946071,225.1892 78.271341,214.65179 C 69.123061,197.66448 74.225421,190.1934 90.050751,197.40388 C 106.29474,204.80514 112.07332,197.51528 109.68288,172.6375 L 107.72674,152.27967 L 125.52597,154.94881 C 147.92977,158.30846 155.0344,151.63515 151.14217,130.88771 C 149.08582,119.92659 149.94077,116.21259 154.96404,114.285 C 158.52291,112.91933 163.47719,113.84439 165.97348,116.34068 C 171.92055,122.28774 186.0776,122.14209 192.14835,116.07134 C 194.79276,113.42693 196.95638,104.51829 196.95638,96.27434 C 196.95638,80.229967 202.8615,73.094757 210.12692,80.360177 C 216.03215,86.26542 234.18489,86.0549 240.22871,80.011077 C 242.87312,77.366647 245.03674,71.162537 245.03674,66.224117 C 245.03674,53.774657 251.64539,50.923497 263.10209,58.430197 C 281.91085,70.754207 301.13049,64.448747 301.13049,45.954157 C 301.13049,34.174467 312.73673,33.655837 322.45113,45.001487 C 331.95469,56.100797 350.71789,54.247737 352.45641,42.038097 C 353.13962,37.239837 356.37475,31.093047 359.64553,28.378497 C 364.55943,24.300317 367.51853,25.750157 376.68048,36.724697 C 390.46977,53.242027 404.94228,51.672637 412.03145,32.891277 C 417.73282,17.786677 424.24995,17.328237 429.69461,31.648847 C 436.87286,50.529007 454.66967,54.821617 467.40841,40.745457 C 476.49167,30.708557 485.43854,30.400407 485.43854,40.124467 C 485.43854,58.099257 513.17758,67.578857 522.42864,52.765537 C 529.18637,41.944697 537.5256,42.628317 537.5256,54.003097 C 537.5256,74.869887 553.82756,83.263707 572.51113,72.016957 C 588.31823,62.501697 592.83677,64.668077 590.49286,80.638097 C 588.91986,91.35583 590.31343,93.51401 601.97244,98.41624 C 613.51239,103.26843 616.46089,103.19743 624.58938,97.87141 C 636.44872,90.10085 638.96055,92.80102 639.36777,113.75804 C 639.65483,128.52805 641.11434,131.16726 650.90972,134.6282 C 659.03412,137.4988 664.40706,137.16388 670.41396,133.41253 C 675.7657,130.07031 680.08136,129.6115 682.58815,132.11828 C 685.09495,134.62508 684.92745,136.95601 682.11574,138.69376 C 674.99072,143.09728 677.16349,163.17127 685.59068,170.79774 C 692.1705,176.75242 695.47442,177.16875 706.27387,173.40401 C 722.68488,167.68309 725.10055,170.36084 716.5645,184.81119 C 710.96778,194.28567 710.56746,198.28424 714.37814,206.64778 C 719.0877,216.98414 728.49518,222.27826 738.43062,220.18344 C 742.5477,219.31534 743.52024,223.98316 742.50795,239.75339 C 741.35635,257.69358 742.35106,261.09081 749.94585,265.15544 C 754.76786,267.73607 762.13299,268.95323 766.31299,267.86017 C 777.66181,264.89232 779.93914,272.66744 770.34013,281.61018 C 755.32649,295.59756 763.01073,321.21422 782.22032,321.21422 C 792.242,321.21422 792.10154,329.60909 781.93414,338.31468 C 772.92581,346.02781 771.33107,362.15748 778.95149,368.48186 C 781.71836,370.77821 788.93047,373.89895 794.97824,375.41684 C 808.93253,378.91914 808.92563,383.47644 794.95589,390.13958 C 786.29288,394.27156 783.67148,398.60239 782.69352,410.39871 C 781.61922,423.35649 782.84844,425.93432 791.70859,429.30291 C 804.5291,434.17725 804.84353,440.52001 792.4973,445.21406 C 774.93593,451.8909 772.8122,473.08084 788.55501,484.54872 C 799.78907,492.73216 798.63485,501.51556 786.32532,501.51556 C 777.65352,501.51556 765.90731,513.70846 765.90731,522.71013 C 765.90731,526.30716 769.86406,532.93645 774.69994,537.44182 C 784.51693,546.58784 781.64271,552.15082 766.0076,554.26501 C 760.30818,555.03572 753.98729,559.84131 751.14395,565.56537 C 746.94874,574.01077 747.39016,577.54779 754.04857,588.8329 C 758.3673,596.15239 761.90061,602.93945 761.90061,603.91531 C 761.90061,604.89119 754.6499,605.68969 745.78786,605.68969 C 732.40067,605.68969 728.88701,607.41964 725.01521,615.91739 C 721.20005,624.29078 721.62078,628.2876 727.33581,637.96241 C 735.82161,652.32782 732.84776,659.66464 721.08966,653.37182 C 703.93865,644.19292 684.55486,664.56698 693.87333,681.97863 C 701.40371,696.04929 696.42573,702.1504 681.89127,696.66426 C 664.43051,690.07355 656.04009,696.38757 654.4911,717.28357 C 653.20051,734.69348 650.39033,736.69269 637.16093,729.61248 C 623.49065,722.29641 609.6461,734.58235 609.6461,754.0298 C 609.6461,766.94674 608.22156,769.9643 602.12333,769.9643 C 597.98578,769.9643 592.35602,767.25969 589.61268,763.95414 C 586.86933,760.64868 582.42047,757.94416 579.72631,757.94416 C 571.57838,757.94416 561.56576,771.92456 561.56576,783.30148 C 561.56576,796.19755 556.92691,796.73926 541.86332,785.60221 C 525.94656,773.83447 516.28069,776.86929 511.77708,795.04867 C 507.61841,811.83566 498.38433,814.84266 490.37507,802.01781 C 482.88202,790.01951 472.04741,793.94183 457.5664,805.99013 C 448.9945,813.12201 444.7244,818.04796 444.7244,818.04796 C 444.7244,818.04796 440.9271,819.30142 435.31076,814.03287 C 430.24046,809.27654 430.65404,802.01781 421.39036,802.01781 C 412.12668,802.01781 397.29121,810.77241 397.29121,818.33086 C 397.29121,825.54036 384.49462,821.95086 382.46006,814.17056 z M 455.65412,753.73417 C 587.79725,730.33435 690.42717,634.69369 724.15482,503.51892 C 734.63528,462.75806 733.71696,386.04397 722.23627,343.25104 C 690.1991,223.83575 602.51095,136.17723 483.4352,104.53058 C 438.99928,92.72089 367.87245,92.64648 323.82243,104.36358 C 214.21903,133.51759 128.77034,214.88562 91.888981,325.22091 C 79.912321,361.05055 79.153661,366.81182 78.962221,423.38499 C 78.720901,494.70061 85.876181,525.61186 116.06078,583.65286 C 131.25414,612.86761 142.42393,627.35917 174.90035,659.99089 C 208.08619,693.3353 221.19386,703.44489 251.04679,718.72079 C 318.99975,753.49276 389.18887,765.50379 455.65412,753.73417 z "
           style="fill:#000000" />
        <path
           style="fill:#000000;fill-opacity:1;fill-rule:evenodd;stroke:none;stroke-width:5.80000019;stroke-linecap:round;stroke-linejoin:round;stroke-miterlimit:4;stroke-opacity:1"
           clip-path="none"
           d="M 514.0625 73.96875 C 500.72343 75.24717 590.96344 178.6975 402.34375 179 C 139.91638 179.42086 416.22462 -22.47043 204.6875 132.6875 C -6.84965 287.84545 269.79961 85.82627 189.375 335.15625 C 108.95038 584.48622 2.59881 260.72295 85.15625 509.375 C 167.71369 758.0271 58.85634 434.93029 271.875 587.375 C 484.89365 739.8197 142.49635 741.67815 404.90625 740.46875 C 667.31618 739.25914 326.32147 741.798 537.5625 586.4375 C 748.80351 431.07698 644.35266 756.8925 724.5 507.0625 C 804.64734 257.23251 699.87982 583.19825 618.15625 333.84375 C 536.43268 84.48927 813.05638 284.92609 600.21875 131.71875 C 540.35816 88.62918 519.28214 73.4685 514.0625 73.96875 z M 244.09375 143 C 266.65582 143 284.98424 161.2507 285.09375 183.8125 L 285.09375 184 C 285.09376 206.632 266.72575 225 244.09375 225 C 221.46175 225 203.09375 206.632 203.09375 184 C 203.09375 161.368 221.46175 143 244.09375 143 z M 559.09375 146 C 581.65582 146 599.98424 164.2507 600.09375 186.8125 L 600.09375 187 C 600.09376 209.632 581.72575 228 559.09375 228 C 536.46175 228 518.09375 209.632 518.09375 187 C 518.09375 164.368 536.46175 146 559.09375 146 z M 404 217 C 505.80444 217 588.50586 299.29051 589 401.09375 L 589 402 C 589 504.12 506.12 587 404 587 C 301.88 587 219 504.12 219 402 C 219 299.88 301.88 217 404 217 z M 158.09375 441 C 180.65582 441 198.98424 459.2507 199.09375 481.8125 L 199.09375 482 C 199.09376 504.632 180.72575 523 158.09375 523 C 135.46175 523 117.09375 504.632 117.09375 482 C 117.09375 459.368 135.46175 441 158.09375 441 z M 662.09375 445 C 684.65581 445 702.98424 463.2507 703.09375 485.8125 L 703.09375 486 C 703.09375 508.632 684.72575 527 662.09375 527 C 639.46175 527 621.09375 508.632 621.09375 486 C 621.09375 463.368 639.46175 445 662.09375 445 z M 406.09375 629 C 428.65582 629 446.98424 647.2507 447.09375 669.8125 L 447.09375 670 C 447.09376 692.632 428.72575 711 406.09375 711 C 383.46175 711 365.09375 692.632 365.09375 670 C 365.09375 647.368 383.46175 629 406.09375 629 z "
           transform="translate(0,18)"
           id="path2241" />
      </g>
    </g>
  </g>
</svg>
